# xmcd CD database file
#
# Track frame offsets:
#	150
#	20865
#	37782
#	54157
#
# Disc length: 1001 seconds
#
# Revision: 0
# Processed by: cddbd v1.5PL3 Copyright (c) Steve Scherf et al.
# Submitted via: CDex 1.51
#
DISCID=2603e704
DTITLE=amin - クリスマス・イブ
DYEAR=2003
DGENRE=J-POP
TTITLE0=クリスマス・イブ
TTITLE1=大きな河と小さな恋（弾き語りVer.）
TTITLE2=ある日、バス停で（弾き語りVer.）
TTITLE3=クリスマス・イブ（カラオケVer.）
EXTD=YEAR: 2003
EXTT0=
EXTT1=
EXTT2=
EXTT3=
PLAYORDER=
